<svg xmlns="http://www.w3.org/2000/svg" width="1024" height="1024" viewBox="0 0 1024 1024">
  <rect width="100%" height="100%" fill="#F9851C" />
  <path
    fill="#FFFFFF"
    d="M291.715 579.745h78.89l-30.19-82.49q-2.23-5.49-4.63-13.03-2.4-7.55-4.8-16.3-2.23 8.75-4.63 16.38t-4.63 13.29zm62.94-154.35 97.41 247.99h-35.67q-6.01 0-9.78-3t-5.66-7.46l-18.52-50.59h-102.73l-18.52 50.59q-1.37 3.94-5.32 7.2-3.94 3.26-9.77 3.26h-36.02l97.58-247.99zm-59.17-44.59q0-7.37 2.91-13.46 2.92-6.09 7.81-10.38 4.88-4.29 11.23-6.69t13.38-2.4q7.2 0 13.8 2.4 6.61 2.4 11.49 6.69 4.89 4.29 7.81 10.38 2.91 6.09 2.91 13.46 0 7.2-2.91 13.03-2.92 5.84-7.81 10.12-4.88 4.29-11.49 6.61-6.6 2.31-13.8 2.31-7.03 0-13.38-2.31-6.35-2.32-11.23-6.61-4.89-4.28-7.81-10.12-2.91-5.83-2.91-13.03m20.41 0q0 6.69 3.94 10.98 3.95 4.28 11.49 4.28 6.86 0 10.98-4.28 4.11-4.29 4.11-10.98 0-7.2-4.11-11.4-4.12-4.21-10.98-4.21-7.54 0-11.49 4.21-3.94 4.2-3.94 11.4m305.44 67.91-11.49 21.79q-2.06 3.6-4.38 5.23-2.31 1.63-5.74 1.63-3.6 0-7.8-2.66-4.21-2.66-10.04-5.92t-13.63-5.92q-7.8-2.65-18.44-2.65-9.6 0-16.8 2.31-7.21 2.32-12.09 6.43-4.89 4.12-7.29 9.86-2.4 5.75-2.4 12.61 0 8.74 4.88 14.58 4.89 5.83 12.95 9.94 8.06 4.12 18.35 7.38t21.1 6.94q10.8 3.69 21.09 8.58t18.35 12.35 12.95 18.26q4.89 10.81 4.89 26.24 0 16.81-5.75 31.47-5.74 14.66-16.81 25.55-11.06 10.89-27.01 17.15t-36.53 6.26q-11.83 0-23.32-2.31-11.49-2.32-22.04-6.6-10.54-4.29-19.81-10.29-9.26-6.01-16.46-13.38l13.55-22.12q1.71-2.41 4.46-4.03 2.74-1.63 5.83-1.63 4.29 0 9.26 3.51 4.97 3.52 11.83 7.8 6.86 4.29 16.04 7.81 9.17 3.51 22.04 3.51 19.72 0 30.52-9.34 10.81-9.35 10.81-26.84 0-9.78-4.89-15.95-4.89-6.18-12.95-10.38t-18.35-7.12q-10.29-2.91-20.92-6.34t-20.92-8.23-18.36-12.52q-8.06-7.72-12.94-19.3-4.89-11.57-4.89-28.55 0-13.55 5.4-26.41t15.69-22.81 25.39-15.95q15.09-6 34.64-6 21.95 0 40.47 6.86t31.56 19.2m188.13 0-11.49 21.79q-2.05 3.6-4.37 5.23t-5.75 1.63q-3.6 0-7.8-2.66t-10.03-5.92-13.64-5.92q-7.8-2.65-18.43-2.65-9.61 0-16.81 2.31-7.2 2.32-12.09 6.43-4.89 4.12-7.29 9.86-2.4 5.75-2.4 12.61 0 8.74 4.89 14.58 4.89 5.83 12.95 9.94 8.06 4.12 18.35 7.38t21.09 6.94q10.81 3.69 21.1 8.58t18.35 12.35 12.95 18.26q4.88 10.81 4.88 26.24 0 16.81-5.74 31.47-5.75 14.66-16.81 25.55t-27.01 17.15-36.53 6.26q-11.83 0-23.32-2.31-11.49-2.32-22.04-6.6-10.55-4.29-19.81-10.29-9.26-6.01-16.46-13.38l13.54-22.12q1.72-2.41 4.46-4.03 2.75-1.63 5.83-1.63 4.29 0 9.27 3.51 4.97 3.52 11.83 7.8 6.86 4.29 16.03 7.81 9.18 3.51 22.04 3.51 19.72 0 30.53-9.34 10.8-9.35 10.8-26.84 0-9.78-4.88-15.95-4.89-6.18-12.95-10.38t-18.35-7.12q-10.29-2.91-20.93-6.34-10.63-3.43-20.92-8.23t-18.35-12.52-12.95-19.3q-4.89-11.57-4.89-28.55 0-13.55 5.41-26.41 5.4-12.86 15.69-22.81t25.38-15.95 34.64-6q21.96 0 40.48 6.86t31.55 19.2"
  />
</svg>
